# xmcd
#
# Track frame offsets:
#	150
#	29280
#	55597
#	92197
#
# Disc length: 1558 seconds
#
# Revision: 1
# Processed by: cddbd v1.5PL3 Copyright (c) Steve Scherf et al.
# Submitted via: CDex 1.50Beta5
#
DISCID=28061404
DTITLE=bird - 空の瞳
DYEAR=1999
DGENRE=Rock
TTITLE0=空の瞳
TTITLE1=リコリス
TTITLE2=空の瞳(Sakura Hills Disco 3000 Jazz Disco Mix)
TTITLE3=君の音が聴こえる場所へ(Murphy’s 45 minutes Mix)
EXTD=
EXTT0=
EXTT1=
EXTT2=
EXTT3=
PLAYORDER=
